<?xml version="1.0" standalone="no"?>
<!DOCTYPE svg PUBLIC "-//W3C//DTD SVG 20010904//EN"
 "http://www.w3.org/TR/2001/REC-SVG-20010904/DTD/svg10.dtd">
<svg version="1.0" xmlns="http://www.w3.org/2000/svg"
 width="512.000000pt" height="512.000000pt" viewBox="0 0 512.000000 512.000000"
 preserveAspectRatio="xMidYMid meet">
<g transform="translate(0.000000,512.000000) scale(0.100000,-0.100000)"
fill="#000000" stroke="none">
<path d="M0 2560 l0 -2560 2560 0 2560 0 0 2560 0 2560 -2560 0 -2560 0 0
-2560z m3580 756 c0 -8 -96 -354 -214 -768 l-214 -753 -66 -3 c-47 -2 -66 1
-66 9 0 22 423 1504 433 1517 14 18 127 16 127 -2z m-1275 -596 l192 -545 39
-9 c21 -4 45 -10 52 -12 9 -3 12 -17 10 -41 l-3 -38 -210 0 -210 0 -3 37 c-3
41 -4 41 89 53 l46 6 -37 117 -37 117 -233 0 -234 0 -37 -115 c-21 -63 -36
-116 -34 -118 1 -2 31 -6 66 -10 l64 -7 0 -40 0 -40 -188 -3 -188 -2 3 42 c3
42 4 43 47 50 24 4 45 9 48 11 3 4 383 1087 383 1094 0 2 41 2 91 1 l92 -3
192 -545z m-1015 205 l0 -65 -300 -150 c-165 -83 -300 -152 -300 -154 0 -2
135 -71 300 -152 l300 -148 0 -68 c0 -37 -1 -68 -2 -68 -2 0 -172 88 -378 194
l-375 195 0 47 0 46 370 194 c204 106 373 194 378 194 4 0 7 -29 7 -65z m2925
-132 l360 -188 0 -49 0 -50 -180 -93 c-99 -51 -267 -138 -372 -193 l-193 -100
0 69 0 70 303 149 302 148 -302 149 -303 148 0 70 c0 51 3 68 13 64 6 -3 174
-90 372 -194z"/>
<path d="M1976 3090 c-9 -36 -53 -178 -97 -317 -43 -138 -79 -257 -79 -262 0
-8 65 -11 200 -11 110 0 200 2 200 5 0 2 -40 127 -88 277 -49 150 -95 295
-103 323 l-15 50 -18 -65z"/>
</g>
</svg>
